<svg xmlns="http://www.w3.org/2000/svg" width="1200" height="630" viewBox="0 0 1200 630" role="img" aria-labelledby="title desc">
  <title id="title">Team workload management software — SprintDesk</title>
  <desc id="desc">A SprintDesk workload view showing active ownership, sprint progress, and blockers.</desc>
  <defs>
    <linearGradient id="bg" x1="0" y1="0" x2="1" y2="1">
      <stop offset="0" stop-color="#0D2440"/>
      <stop offset="1" stop-color="#173A63"/>
    </linearGradient>
    <linearGradient id="bar" x1="0" y1="0" x2="1" y2="0">
      <stop offset="0" stop-color="#7BA4D0"/>
      <stop offset="1" stop-color="#E7F0FA"/>
    </linearGradient>
  </defs>
  <rect width="1200" height="630" fill="url(#bg)"/>
  <circle cx="1060" cy="560" r="240" fill="#7BA4D0" opacity=".08"/>
  <path d="M0 570h1200" stroke="#7BA4D0" stroke-opacity=".22"/>
  <rect x="64" y="56" width="1072" height="518" rx="24" fill="none" stroke="#7BA4D0" stroke-opacity=".3"/>
  <g font-family="Arial, Helvetica, sans-serif">
    <text x="96" y="112" fill="#E7F0FA" font-size="22" font-weight="700">SprintDesk</text>
    <text x="96" y="178" fill="#7BA4D0" font-size="14" letter-spacing="4">TEAM WORKLOAD MANAGEMENT</text>
    <text x="96" y="238" fill="#E7F0FA" font-size="45" font-weight="700">See who’s carrying</text>
    <text x="96" y="289" fill="#E7F0FA" font-size="45" font-weight="700">the work.</text>
    <text x="96" y="335" fill="#B9C9DB" font-size="18">Understand active ownership, sprint context,</text>
    <text x="96" y="362" fill="#B9C9DB" font-size="18">and blockers without chasing updates.</text>
    <rect x="96" y="402" width="176" height="48" rx="10" fill="#7BA4D0"/>
    <text x="128" y="433" fill="#0D2440" font-size="15" font-weight="700">START FREE ↗</text>
  </g>
  <g transform="translate(594 126)" font-family="Arial, Helvetica, sans-serif">
    <rect width="482" height="354" rx="16" fill="#102D4E" stroke="#7BA4D0" stroke-opacity=".55"/>
    <text x="26" y="36" fill="#7BA4D0" font-size="11" letter-spacing="2">COMMAND CENTER</text>
    <text x="378" y="36" fill="#7BA4D0" font-size="11">THIS SPRINT</text>
    <g transform="translate(22 58)">
      <g>
        <rect width="132" height="76" rx="8" fill="#173A63" stroke="#7BA4D0" stroke-opacity=".35"/>
        <text x="14" y="24" fill="#9FB1C6" font-size="10">SPRINT PROGRESS</text>
        <text x="14" y="59" fill="#E7F0FA" font-size="28" font-weight="700">78%</text>
      </g>
      <g transform="translate(142)">
        <rect width="132" height="76" rx="8" fill="#173A63" stroke="#7BA4D0" stroke-opacity=".35"/>
        <text x="14" y="24" fill="#9FB1C6" font-size="10">TEAM VELOCITY</text>
        <text x="14" y="59" fill="#7BA4D0" font-size="28" font-weight="700">+18%</text>
      </g>
      <g transform="translate(284)">
        <rect width="132" height="76" rx="8" fill="#173A63" stroke="#7BA4D0" stroke-opacity=".35"/>
        <text x="14" y="24" fill="#9FB1C6" font-size="10">OPEN BLOCKERS</text>
        <text x="14" y="59" fill="#E7F0FA" font-size="28" font-weight="700">3</text>
      </g>
    </g>
    <g transform="translate(22 164)">
      <text x="0" y="18" fill="#7BA4D0" font-size="11" letter-spacing="1">TEAM WORKLOAD</text>
      <text x="386" y="18" fill="#7BA4D0" font-size="11">THIS SPRINT</text>
      <g transform="translate(0 38)">
        <text y="13" fill="#E7F0FA" font-size="13">Sarah</text><rect x="78" y="2" width="250" height="10" rx="5" fill="#1E3046"/><rect x="78" y="2" width="194" height="10" rx="5" fill="url(#bar)"/><text x="350" y="13" fill="#B9C9DB" font-size="12">4</text>
      </g>
      <g transform="translate(0 72)">
        <text y="13" fill="#E7F0FA" font-size="13">David</text><rect x="78" y="2" width="250" height="10" rx="5" fill="#1E3046"/><rect x="78" y="2" width="130" height="10" rx="5" fill="url(#bar)"/><text x="350" y="13" fill="#B9C9DB" font-size="12">5</text>
      </g>
      <g transform="translate(0 106)">
        <text y="13" fill="#E7F0FA" font-size="13">Alex</text><rect x="78" y="2" width="250" height="10" rx="5" fill="#1E3046"/><rect x="78" y="2" width="228" height="10" rx="5" fill="url(#bar)"/><text x="350" y="13" fill="#B9C9DB" font-size="12">9</text>
      </g>
      <g transform="translate(0 140)">
        <text y="13" fill="#E7F0FA" font-size="13">Maria</text><rect x="78" y="2" width="250" height="10" rx="5" fill="#1E3046"/><rect x="78" y="2" width="158" height="10" rx="5" fill="url(#bar)"/><text x="350" y="13" fill="#B9C9DB" font-size="12">7</text>
      </g>
    </g>
  </g>
</svg>